<svg version="1.1" id="Camada_1" xmlns="http://www.w3.org/2000/svg" x="0" y="0" viewBox="0 0 59.7 139.8" xml:space="preserve"><style>.st1{fill:#2311aa}</style><g id="Layer_2"><g id="Layer_20"><ellipse transform="rotate(-80.45 24.015 129.105)" cx="24" cy="129.1" rx="10" ry="24.3" fill="#3e21da"/><path class="st1" d="M26.9 133.5v-.2.2z"/><path d="M40.5 60c-.2-3.7-.3-7.5.7-11.1 1.3-4.6 4.4-8.5 7.8-11.9 2-2.1 5.2-4.2 7.6-2.5.9.7 1.6 1.7 1.9 2.8 2.8 7.6.4 16-1.3 23.9-1.2 5.4-2.1 11.1-4.8 16-.8 1.7-2 3.1-3.5 4.2s-3.5 1.4-5.3.7c-3.9-1.7-4-7.3-3.5-10.8.4-3.7.6-7.5.4-11.3z" fill="#feaf33"/><path d="M37.3 109.7c-8.4-1.6-15-4.6-15.4-7l-.2 2.2 5.2 28.4v.2c.4 1.6 4.3 3.6 9.4 4.5 5.5 1 10.2.5 10.5-1.2L54 110c-.8 2.2-8 1.3-16.7-.3z" fill="#66f"/><ellipse transform="rotate(-79.409 37.843 106.886)" class="st1" cx="37.8" cy="106.9" rx="6.2" ry="16.5"/><path d="M40 107.6c.7.8 1.1 1.8 1.4 2.8 2.8-6.1 15.1-18.7 14-22.8-3.3-12.1-14-21.2-17-33.5-1.9-7.5-.6-15.4.1-23.1s.7-16-3.2-22.7S22-2.4 15.4 1.6c-4.6 2.8-6.6 8.6-6.8 14s.8 10.7.8 16.1c-.3 11.7-5.9 22.9-5.9 34.6 0 9.8 4 19.3 11 26.2 4 3.9 22 10.7 25.5 15.1z" fill="#ffca44"/></g></g></svg>