<svg viewBox="0 0 321.86 176.28" xmlns="http://www.w3.org/2000/svg"><g data-name="Layer 2"><g data-name="Layer 4"><path fill="#7a7af9" d="M114.35 42.62L91.93 54.7l26.66 15.81z"/><path d="M180.83 130.94l1.12-1.69c2.72 1.8 5.53 3.58 8.37 5.3l-1 1.72c-2.91-1.72-5.74-3.52-8.49-5.33zm-16.21-11.67l1.24-1.59c2.59 2 5.25 4 7.93 5.95l-1.18 1.64c-2.7-1.94-5.39-3.96-7.99-6zm-15.19-12.96l1.37-1.48c2.39 2.22 4.88 4.43 7.4 6.58l-1.31 1.59a329.16 329.16 0 01-7.46-6.69zm-26.87-29.53l1.61-1.23c2 2.62 4.09 5.22 6.18 7.74l-1.54 1.29c-2.12-2.58-4.22-5.16-6.25-7.8zm12.81 15.33l1.49-1.36c2.21 2.43 4.5 4.84 6.82 7.19l-1.43 1.42c-2.34-2.36-4.66-4.8-6.88-7.25zm118.29 70.33c3.17.95 6.38 1.85 9.55 2.69l-.52 2c-3.19-.85-6.42-1.76-9.61-2.72zm38.65 8.87c3.3.53 6.6 1 9.82 1.39l-.25 2c-3.24-.39-6.56-.87-9.89-1.4zm-19.47-3.8c3.2.74 6.46 1.43 9.7 2.06l-.39 2c-3.25-.64-6.54-1.34-9.77-2.08zm49.01 8.77c-.15 0-3.71 0-10-.55l.17-2c6.23.52 9.84.55 9.87.55zm-86.97-20.19c3.07 1.16 6.22 2.28 9.34 3.33l-.65 1.91c-3.14-1.06-6.3-2.19-9.41-3.35zm-19.14-5.8l.84-1.84c3 1.38 6 2.72 9.08 4l-.78 1.87c-3.06-1.32-6.14-2.65-9.14-4.03zm-17.82-9.01l1-1.77c2.86 1.59 5.81 3.15 8.76 4.64l-.91 1.8c-2.99-1.5-5.96-3.07-8.85-4.67z" fill="#cec6ff"/><path d="M0 0s33.87 42.8 71.62 65.61c37.13-20 96.1-40.18 96.1-40.18z" fill="#ebebff"/><path d="M126.46 40.09L6.27 2.34l104.84 44.78 7.48 23.39z" fill="#c5bdff"/></g></g></svg>